<?xml version="1.0" encoding="UTF-8" standalone="no"?>
<!DOCTYPE svg PUBLIC "-//W3C//DTD SVG 1.1//EN" "http://www.w3.org/Graphics/SVG/1.1/DTD/svg11.dtd">
<svg width="100%" height="100%" viewBox="0 0 1000 1000" version="1.1" xmlns="http://www.w3.org/2000/svg" xmlns:xlink="http://www.w3.org/1999/xlink" xml:space="preserve" xmlns:serif="http://www.serif.com/" style="fill-rule:evenodd;clip-rule:evenodd;stroke-linecap:round;stroke-linejoin:round;stroke-miterlimit:1.5;">
    <g transform="matrix(9.84418,-9.84418,9.84418,9.84418,-7756.51,-2556.35)">
        <g transform="matrix(0.29198,0,0,0.29198,56.0371,363.003)">
            <path d="M848.671,696.201L615.637,696.201L548.431,724.851L615.637,753.501L848.671,753.501L848.671,696.201Z" style="fill:#3A3A3A;stroke:#3A3A3A;stroke-width:12.49px;"/>
        </g>
        <g transform="matrix(0.29198,0,0,0.29198,56.0371,363.003)">
            <path d="M848.671,696.201L615.637,696.201L548.431,724.851L615.637,753.501L848.671,753.501L848.671,696.201Z" style="fill:#3A3A3A;"/>
        </g>
        <g transform="matrix(0.29198,0,0,0.29198,56.0371,363.003)">
            <path d="M581.831,710.529L614.466,696.536L615.246,696.201L629.571,710.297L615.246,724.851L629.571,739.404L615.567,753.773L581.831,739.24L581.831,710.529Z" style="fill:white;"/>
        </g>
    </g>
</svg>
